<?xml version="1.0" standalone="no"?>
<!DOCTYPE svg PUBLIC "-//W3C//DTD SVG 20010904//EN"
 "http://www.w3.org/TR/2001/REC-SVG-20010904/DTD/svg10.dtd">
<svg version="1.0" xmlns="http://www.w3.org/2000/svg"
 width="594.000000pt" height="420.000000pt" viewBox="0 0 594.000000 420.000000"
 preserveAspectRatio="xMidYMid meet">
<metadata>
Created by potrace 1.16, written by Peter Selinger 2001-2019
</metadata>
<g transform="translate(0.000000,420.000000) scale(0.100000,-0.100000)"
fill="#000000" stroke="none">
<path d="M2874 3035 c-12 -8 -32 -39 -44 -70 -20 -50 -28 -58 -76 -81 -53 -25
-108 -77 -101 -97 4 -12 226 -106 268 -114 30 -6 39 13 39 83 0 65 -16 98 -59
120 l-39 19 15 38 c8 20 21 37 29 37 21 0 35 -35 25 -63 -11 -28 -6 -37 19
-37 9 0 22 -11 28 -24 10 -22 229 -198 280 -225 30 -16 187 -137 218 -168 13
-13 24 -35 24 -49 0 -22 2 -24 22 -13 28 15 22 23 214 -286 145 -233 161 -255
187 -255 20 0 27 -5 27 -19 0 -13 -7 -18 -25 -19 -14 0 -37 -8 -51 -18 -42
-30 -47 -32 -76 -39 -19 -4 -28 -12 -28 -25 0 -20 -9 -20 -604 -20 l-604 0
-12 30 c-7 17 -25 41 -41 54 -28 24 -28 25 -12 57 9 19 19 57 21 85 4 46 2 53
-23 72 -19 15 -42 22 -74 22 -33 0 -42 3 -31 10 8 5 27 10 43 10 23 0 27 4 27
30 0 41 -50 168 -102 260 -35 62 -53 81 -96 107 -30 17 -72 34 -95 38 -66 10
-77 15 -77 35 0 11 11 30 25 44 27 27 33 64 13 84 -7 7 -13 40 -13 74 -3 116
-50 163 -161 161 -118 -1 -174 -55 -174 -166 0 -31 -4 -59 -10 -62 -18 -11
-10 -61 15 -95 33 -44 32 -50 -8 -50 -91 0 -219 -70 -260 -142 -14 -24 -28
-59 -32 -78 -6 -28 -56 -169 -90 -252 -5 -13 0 -20 19 -28 23 -8 25 -12 16
-35 -15 -40 -12 -85 10 -132 26 -59 53 -69 129 -52 l61 13 0 173 c0 160 2 175
20 193 19 19 33 20 331 20 195 0 318 -4 330 -10 14 -8 19 -21 19 -50 0 -21 3
-45 6 -54 11 -29 22 -17 19 22 -2 20 -4 45 -4 55 -1 9 -10 26 -21 37 -19 19
-33 20 -344 20 -312 0 -324 -1 -350 -21 -24 -19 -26 -26 -26 -105 l0 -84 -27
17 c-19 13 -47 18 -95 18 -37 0 -68 2 -68 5 0 3 13 38 30 77 16 40 32 90 36
110 3 21 19 66 35 99 38 81 101 129 202 155 64 16 94 7 102 -32 4 -17 26 -51
49 -75 37 -38 48 -44 85 -44 23 0 55 7 71 15 35 18 64 68 57 101 -4 22 -1 24
38 24 52 0 157 -50 184 -88 45 -65 131 -259 131 -299 0 -7 -8 -13 -18 -13 -9
0 -34 -9 -55 -20 -49 -27 -61 -26 -53 5 8 33 -7 32 -22 0 -16 -34 -16 -34 13
-45 22 -8 23 -12 14 -40 -6 -17 -8 -47 -5 -68 4 -20 10 -58 12 -84 l6 -48
-799 -2 -798 -3 -3 -27 c-3 -26 -6 -27 -65 -30 l-62 -3 -3 -752 -2 -753 -30 0
c-17 0 -30 -4 -30 -9 0 -10 59 -21 77 -14 10 4 13 165 13 759 l0 754 50 0 50
0 0 -90 0 -90 485 0 485 0 -6 -28 c-4 -15 -18 -40 -31 -55 -12 -16 -23 -35
-23 -44 0 -12 -3 -13 -13 -4 -35 28 -51 -66 -22 -123 20 -38 19 -42 -15 -56
-16 -7 -36 -22 -44 -35 -17 -25 -51 -153 -62 -230 -3 -27 -26 -129 -50 -225
-24 -96 -44 -180 -44 -187 0 -8 14 -13 35 -13 43 0 40 -7 95 220 49 207 121
460 129 460 22 0 74 -46 91 -80 17 -33 19 -47 11 -78 -5 -20 -12 -122 -15
-227 -3 -104 -9 -243 -13 -308 l-6 -118 44 3 44 3 -1 275 c-1 151 -6 304 -12
339 -12 71 -2 118 16 71 21 -56 60 -177 66 -207 4 -17 17 -42 30 -56 l22 -24
-28 -49 c-15 -27 -28 -62 -28 -77 0 -26 26 -62 61 -83 8 -5 27 -35 43 -67 17
-35 38 -63 54 -71 34 -17 131 -29 166 -20 22 5 26 12 26 43 0 24 -9 49 -24 70
-27 36 -41 98 -31 130 5 17 9 19 31 9 13 -6 26 -9 28 -7 1 2 14 20 27 40 13
20 56 70 95 111 l70 76 23 -142 c20 -119 50 -331 51 -359 0 -5 17 -7 38 -5
l37 3 -3 50 c-1 28 -21 145 -42 260 -22 116 -42 222 -45 237 -4 28 6 45 78
128 70 81 81 112 82 230 0 58 -4 131 -8 163 l-8 57 613 -2 613 -3 5 -665 5
-664 35 -3 c19 -1 45 0 58 3 l22 4 0 765 0 765 -84 0 c-47 0 -88 5 -91 10 -4
6 6 10 23 10 20 0 35 9 50 30 19 25 30 30 62 30 38 0 40 2 40 30 0 17 5 30 10
30 6 0 10 -7 10 -16 0 -8 14 -27 30 -41 30 -25 40 -66 20 -78 -14 -9 -14
-1532 0 -1537 26 -8 930 3 930 12 0 6 -166 10 -460 10 l-460 0 3 753 c2 413 7
768 11 787 7 31 4 39 -23 64 -17 17 -31 38 -31 48 0 11 -7 18 -20 18 -11 0
-20 6 -20 13 0 12 -340 561 -360 581 -5 5 -21 -1 -39 -13 -34 -24 -51 -21 -51
11 0 17 2 18 15 8 12 -10 18 -10 30 0 24 20 19 26 -37 50 -29 12 -58 28 -64
36 -6 8 -40 33 -75 57 -35 23 -131 93 -211 155 -117 90 -149 120 -156 144 -10
38 -28 47 -37 18 -5 -15 -10 -19 -17 -12 -6 6 -6 17 2 31 14 28 5 55 -27 81
-31 24 -42 25 -69 5z m76 -45 c13 -24 8 -25 -32 -4 -17 9 -34 12 -37 7 -14
-15 -43 -102 -37 -111 3 -5 23 -17 44 -26 41 -19 52 -41 52 -106 0 -57 -7 -61
-58 -41 -109 42 -202 83 -202 90 0 15 47 51 93 71 42 19 51 28 73 78 29 67 49
86 75 71 10 -5 23 -18 29 -29z m232 -252 c75 -57 157 -115 180 -130 61 -37
138 -107 138 -124 0 -8 -2 -14 -5 -14 -2 0 -40 29 -84 64 -44 36 -106 81 -138
102 -84 53 -270 201 -277 220 -15 40 -5 48 22 17 15 -17 89 -78 164 -135z
m-1178 82 c14 -5 35 -24 46 -42 25 -41 25 -51 1 -36 -15 9 -28 9 -59 0 -54
-16 -71 -15 -115 8 -21 11 -42 18 -47 15 -17 -11 -11 11 8 28 38 35 114 47
166 27z m-101 -107 c25 -12 34 -12 78 2 37 13 53 14 63 6 28 -24 36 -199 11
-258 -28 -68 -130 -96 -174 -49 -12 13 -31 52 -42 87 -11 35 -29 71 -39 81
-24 23 -26 54 -4 62 9 4 14 13 10 21 -3 8 -1 15 4 15 4 0 11 14 15 30 7 33 18
34 78 3z m1781 -401 c44 -70 121 -193 173 -274 51 -81 93 -153 93 -159 0 -5
-10 -9 -22 -7 -18 2 -53 51 -151 208 -70 113 -147 235 -171 273 -39 59 -42 68
-27 77 9 5 18 9 21 9 3 1 41 -57 84 -127z m-2074 -408 l0 -80 -50 -13 c-44
-11 -54 -11 -75 3 -30 20 -46 75 -38 131 l5 43 79 -2 79 -1 0 -81z m878 73
c16 0 15 -32 -3 -95 -15 -50 -17 -51 -60 -58 -25 -3 -48 -10 -51 -15 -3 -5
-10 -9 -15 -9 -6 0 -7 5 -4 10 4 6 -1 33 -10 60 -13 38 -14 58 -7 79 6 16 7
32 4 36 -4 4 25 4 63 -1 39 -4 76 -7 83 -7z m16 -208 c53 -63 112 -59 -859
-59 -878 0 -885 0 -885 20 0 20 7 20 794 20 788 0 795 0 801 20 4 11 10 18 13
16 4 -2 23 -1 42 4 58 13 67 11 94 -21z m55 -116 c6 -21 11 -48 11 -60 l0 -23
-424 0 c-415 0 -424 0 -429 -20 -5 -20 -14 -20 -486 -20 l-481 0 0 80 0 80
900 0 899 0 10 -37z m1211 -23 l0 -60 -585 0 -584 0 -11 43 c-6 23 -13 50 -16
60 -5 16 28 17 595 17 l601 0 0 -60z m180 -685 l0 -745 -40 0 -40 0 0 665 0
665 -630 0 c-346 0 -630 4 -630 9 0 15 248 22 716 20 l459 -2 3 67 3 66 79 0
80 0 0 -745z m-1366 595 c7 -7 -136 -10 -417 -10 -382 0 -465 5 -414 23 25 9
821 -3 831 -13z m23 -100 c19 -100 16 -202 -6 -260 -11 -28 -45 -82 -77 -121
l-57 -70 -23 71 c-13 39 -35 93 -48 120 -24 48 -24 50 -6 60 10 5 31 7 47 4
32 -6 109 11 118 27 11 16 -15 39 -45 39 -15 0 -44 -7 -65 -16 -20 -8 -39 -13
-42 -11 -2 3 17 23 44 45 48 42 54 68 9 38 -29 -18 -84 -21 -118 -6 -13 6 -33
26 -45 45 -13 19 -41 47 -63 61 -22 15 -40 31 -40 36 0 5 89 7 202 6 l203 -3
12 -65z m-429 30 c45 -20 92 -56 92 -70 0 -4 -23 -1 -52 6 -93 25 -158 -9
-188 -96 -18 -52 -19 -54 -82 -76 -34 -13 -64 -24 -65 -24 -2 0 -3 14 -3 30 0
50 -25 96 -72 129 -61 43 -88 68 -88 79 0 13 27 20 130 37 116 19 265 12 328
-15z m-403 -105 c60 -48 75 -65 74 -85 0 -10 -2 -11 -6 -2 -13 33 -53 -3 -53
-47 0 -15 -6 -21 -24 -21 -74 0 -133 146 -83 208 11 14 5 17 92 -53z m486 3
c34 -14 48 -27 57 -52 19 -52 17 -54 -40 -40 -43 12 -66 12 -142 0 -50 -7 -93
-12 -94 -10 -9 7 21 73 42 93 46 43 91 45 177 9z m-12 -225 c-41 -43 -91 -98
-112 -122 -25 -30 -38 -40 -41 -30 -16 44 -46 167 -46 186 0 22 4 23 73 24 39
0 92 4 117 8 87 16 87 15 9 -66z m129 25 c11 -24 32 -79 46 -122 30 -91 25
-106 -34 -106 -25 0 -50 -9 -76 -28 -56 -40 -131 -127 -146 -168 -14 -39 -19
-40 -53 -18 -13 9 -30 14 -37 11 -15 -5 -68 20 -68 32 0 17 36 40 69 43 48 4
58 25 42 88 l-13 51 48 57 c62 73 185 202 194 202 4 0 16 -19 28 -42z m-354
10 c2 -7 13 -53 26 -103 12 -49 23 -99 24 -109 2 -30 -18 -28 -36 4 -9 16 -41
45 -70 64 -58 37 -78 68 -78 121 l0 35 65 0 c44 0 67 -4 69 -12z m-414 -16 c0
-10 -11 -51 -25 -91 -23 -67 -37 -127 -100 -404 -27 -121 -39 -149 -59 -141
-12 4 -12 14 -2 57 24 98 65 282 86 382 29 134 48 193 68 205 25 14 32 12 32
-8z m261 -44 c14 -54 20 -61 87 -105 35 -24 60 -49 69 -71 13 -32 13 -35 -20
-80 -26 -37 -39 -47 -62 -47 -33 0 -29 -9 -91 187 -36 114 -37 119 -19 138 10
11 19 20 21 20 2 0 8 -19 15 -42z m-87 -305 c4 -71 5 -191 2 -268 -4 -127 -6
-140 -23 -140 -22 0 -21 -7 -9 308 5 125 12 227 16 227 4 0 11 -57 14 -127z
m692 13 c8 -53 25 -154 39 -224 29 -147 32 -202 11 -202 -15 0 -17 8 -35 120
-43 263 -57 429 -35 408 3 -3 12 -49 20 -102z m-76 85 c0 -5 -36 -47 -79 -94
-44 -47 -84 -94 -90 -106 -13 -24 -39 -28 -47 -7 -12 31 63 132 140 188 38 27
76 37 76 19z m-428 -197 c20 -10 44 -14 67 -10 54 8 61 -1 59 -76 -2 -72 6
-89 52 -108 49 -20 36 -33 -30 -28 -68 5 -104 30 -113 78 -4 19 -21 38 -49 57
-45 30 -59 63 -38 89 15 17 14 17 52 -2z"/>
</g>
</svg>
