<?xml version="1.0" standalone="no"?>
<!DOCTYPE svg PUBLIC "-//W3C//DTD SVG 20010904//EN"
 "http://www.w3.org/TR/2001/REC-SVG-20010904/DTD/svg10.dtd">
<svg version="1.0" xmlns="http://www.w3.org/2000/svg"
 width="594.000000pt" height="420.000000pt" viewBox="0 0 594.000000 420.000000"
 preserveAspectRatio="xMidYMid meet">
<metadata>
Created by potrace 1.16, written by Peter Selinger 2001-2019
</metadata>
<g transform="translate(0.000000,420.000000) scale(0.100000,-0.100000)"
fill="#000000" stroke="none">
<path d="M2856 3018 c-8 -13 -22 -42 -32 -66 -14 -37 -25 -48 -71 -69 -53 -25
-107 -76 -101 -95 2 -6 66 -35 142 -66 133 -55 138 -56 152 -37 17 22 18 99 3
143 -7 22 -22 35 -50 46 l-39 16 15 36 c8 20 15 38 15 40 0 2 7 4 15 4 22 0
37 -35 26 -63 -11 -28 -6 -37 21 -37 10 0 24 -11 30 -25 11 -24 225 -197 278
-225 26 -14 178 -130 217 -166 13 -12 23 -31 23 -44 0 -18 4 -21 24 -16 14 3
28 1 34 -7 10 -12 196 -308 292 -464 38 -62 49 -73 72 -73 21 0 28 -5 28 -20
0 -16 -7 -20 -31 -20 -22 0 -40 -9 -59 -30 -19 -21 -37 -30 -59 -30 -24 0 -31
-4 -31 -20 0 -20 -7 -20 -604 -20 -601 0 -605 0 -611 20 -4 12 -22 36 -40 55
l-34 33 20 51 c38 102 12 162 -70 160 l-36 -1 40 -13 40 -13 -38 -1 c-21 -1
-45 6 -53 14 -13 12 -12 15 5 25 11 5 31 10 45 10 21 0 26 5 26 25 0 65 -99
281 -153 336 -40 40 -103 68 -167 76 -44 5 -50 9 -50 29 0 13 11 34 25 48 27
27 33 73 11 82 -9 4 -13 23 -13 67 1 74 -23 131 -64 152 -42 22 -144 19 -194
-5 -51 -25 -75 -71 -75 -145 0 -29 -4 -57 -10 -60 -19 -11 -10 -63 15 -93 38
-46 33 -57 -28 -59 -65 -2 -133 -30 -187 -79 -51 -46 -61 -65 -101 -190 -17
-55 -42 -123 -55 -153 -13 -29 -24 -55 -24 -57 0 -3 11 -9 23 -13 23 -9 23
-12 14 -60 -9 -43 -8 -57 9 -97 10 -25 31 -53 45 -61 23 -14 34 -14 88 -2 l61
13 0 177 c0 172 1 178 22 193 19 14 68 16 331 16 193 0 316 -4 328 -10 14 -8
19 -22 19 -53 0 -23 5 -49 10 -57 7 -11 10 1 10 41 0 100 22 94 -365 94 l-337
0 -19 -24 c-15 -18 -19 -39 -19 -101 l0 -78 -31 15 c-42 21 -119 29 -128 14
-4 -6 -15 -9 -23 -6 -14 6 -13 13 8 60 13 30 34 92 47 139 43 152 100 216 224
252 74 22 104 16 116 -21 23 -72 86 -125 148 -125 65 0 127 67 117 127 -3 15
3 17 36 14 21 -1 57 -9 79 -17 76 -27 103 -57 167 -187 66 -134 83 -197 56
-197 -19 0 -78 -28 -87 -42 -3 -5 -13 -6 -22 -2 -13 4 -14 10 -7 24 6 11 6 21
1 24 -4 3 -13 -6 -20 -20 -15 -33 -15 -33 13 -44 23 -8 24 -11 14 -51 -8 -30
-8 -50 0 -73 7 -18 12 -51 12 -74 l0 -42 -795 0 -795 0 -6 -30 c-6 -29 -8 -30
-65 -30 l-59 0 0 -755 0 -755 -35 0 c-19 0 -35 -4 -35 -10 0 -15 80 -13 80 3
0 6 0 335 0 729 0 395 2 729 6 743 6 22 11 25 55 25 l49 0 0 -90 0 -90 486 0
486 0 -7 -27 c-3 -16 -15 -37 -25 -48 -10 -11 -22 -33 -25 -48 -7 -25 -9 -26
-20 -11 -11 16 -13 16 -25 -6 -16 -30 -7 -110 14 -125 25 -19 19 -32 -18 -45
-46 -15 -72 -69 -97 -202 -11 -57 -40 -185 -64 -285 -25 -101 -45 -187 -45
-193 0 -12 67 -13 74 -1 3 5 12 37 20 72 23 111 75 309 118 457 38 132 43 142
62 136 12 -3 29 -14 40 -23 27 -24 58 -91 51 -109 -9 -21 -36 -653 -29 -664 3
-4 20 -8 38 -8 l33 0 7 178 c6 160 -5 438 -20 484 -3 10 -2 28 1 39 10 31 19
14 66 -133 39 -122 57 -158 81 -158 7 0 2 -10 -9 -23 -30 -32 -53 -82 -53
-112 0 -25 50 -85 70 -85 5 0 16 -20 25 -44 27 -69 61 -96 138 -106 43 -7 75
-6 93 0 24 9 26 14 21 49 -2 21 -15 53 -28 70 -17 23 -23 45 -24 84 0 54 -1
53 45 40 9 -2 26 13 43 39 15 24 58 76 95 115 l68 73 27 -163 c15 -89 31 -200
37 -246 5 -47 14 -89 19 -94 5 -5 21 -7 37 -5 28 3 29 5 26 48 -2 25 -19 128
-38 230 -19 102 -40 211 -45 244 l-10 58 38 45 c123 147 139 187 130 328 -4
49 -10 109 -13 133 l-7 42 617 0 616 0 0 -665 0 -665 60 0 60 0 0 765 0 765
-90 0 c-53 0 -90 4 -90 10 0 6 13 10 28 10 20 0 35 9 50 30 19 25 30 30 62 30
38 0 40 2 40 30 0 17 5 30 10 30 6 0 10 -6 10 -13 0 -8 14 -26 30 -40 30 -27
40 -70 20 -82 -7 -4 -10 -272 -10 -771 l0 -764 470 0 c307 0 470 3 470 10 0 7
-160 10 -460 10 l-460 0 3 753 c2 413 7 768 11 788 7 32 5 38 -23 62 -17 14
-31 35 -31 46 0 14 -6 21 -20 21 -11 0 -20 5 -20 12 0 11 -39 75 -272 446
l-90 142 -34 -21 c-37 -23 -54 -19 -54 13 0 17 2 18 16 8 12 -11 18 -10 31 3
14 14 13 17 -18 36 -19 12 -42 21 -51 21 -9 0 -23 8 -30 18 -7 10 -53 46 -103
80 -49 34 -146 106 -215 160 -98 76 -126 104 -130 126 -6 36 -26 45 -35 16 -5
-15 -10 -19 -17 -12 -6 6 -6 17 1 30 16 30 14 40 -14 67 -32 32 -79 33 -99 3z
m81 -12 c35 -30 25 -43 -17 -21 -18 9 -33 15 -35 13 -7 -7 -45 -100 -45 -109
0 -6 20 -19 44 -29 35 -16 45 -26 50 -51 9 -46 7 -107 -3 -113 -9 -6 -227 79
-245 95 -15 13 23 49 83 78 48 23 56 32 78 86 35 83 46 89 90 51z m73 -120 c0
-14 266 -223 353 -278 71 -44 137 -108 137 -131 0 -19 -2 -19 -32 9 -41 38
-154 124 -188 143 -47 26 -270 202 -280 221 -13 24 -13 50 0 50 6 0 10 -6 10
-14z m-974 -90 c38 -38 48 -75 14 -54 -15 10 -26 10 -53 0 -47 -17 -87 -15
-123 7 -22 14 -35 16 -48 9 -16 -9 -16 -8 -6 12 19 36 70 60 129 60 47 0 57
-4 87 -34z m-102 -86 c16 0 44 5 62 12 25 9 36 9 47 0 35 -30 42 -202 10 -265
-32 -63 -130 -88 -171 -44 -12 13 -32 52 -43 88 -12 35 -29 71 -39 79 -25 22
-32 50 -15 56 8 4 15 12 15 18 0 7 9 31 20 54 l20 42 33 -20 c17 -11 45 -20
61 -20z m1704 -323 c19 -28 80 -125 135 -215 56 -89 119 -188 139 -220 43 -67
46 -82 16 -82 -19 0 -52 47 -188 266 -91 146 -169 268 -173 271 -10 6 12 33
27 33 6 0 26 -24 44 -53z m-2073 -405 l45 3 0 -81 0 -81 -44 -13 c-56 -15 -74
-11 -100 23 -15 20 -21 43 -21 80 0 77 7 89 45 76 16 -6 50 -9 75 -7z m891 -3
c50 -3 53 -10 31 -94 -12 -47 -16 -51 -53 -59 -61 -13 -64 -15 -64 -29 0 -11
9 -13 38 -7 21 4 43 10 49 13 11 7 54 -35 72 -70 l12 -23 -896 0 c-888 0 -895
0 -895 20 0 20 7 20 800 20 l800 0 0 59 c0 33 -5 63 -11 67 -11 7 -5 86 10
121 1 1 15 -2 32 -7 17 -5 51 -10 75 -11z m103 -326 c5 -21 11 -48 14 -60 l5
-23 -428 0 c-419 0 -428 0 -433 -20 -5 -20 -14 -20 -486 -20 l-481 0 0 80 0
80 900 0 899 0 10 -37z m1211 -23 l0 -60 -587 2 -586 3 -13 55 c-7 30 -13 56
-14 58 0 1 270 2 600 2 l600 0 0 -60z m180 -685 l0 -745 -40 0 -40 0 -2 662
-3 663 -627 3 c-549 2 -628 4 -628 17 0 13 74 15 590 15 l590 0 0 65 0 65 80
0 80 0 0 -745z m-1362 598 c3 -10 -87 -13 -427 -13 -380 0 -430 2 -425 15 5
13 59 15 427 13 325 -2 421 -6 425 -15z m20 -103 c19 -90 12 -234 -14 -282
-20 -39 -115 -166 -125 -167 -3 -1 -15 32 -28 72 -13 39 -34 92 -47 116 -30
54 -19 76 33 66 32 -6 95 6 122 24 12 8 12 12 2 25 -17 20 -47 20 -101 1 -24
-8 -45 -14 -47 -12 -3 4 26 34 68 70 27 24 17 34 -14 14 -57 -37 -123 -22
-166 38 -18 26 -55 59 -84 75 l-52 30 220 -2 219 -3 14 -65z m-445 39 c46 -15
139 -95 97 -83 -14 4 -53 9 -88 11 -62 5 -63 4 -101 -34 -26 -26 -41 -51 -45
-78 -7 -38 -10 -41 -64 -59 -31 -10 -62 -20 -68 -22 -7 -3 -14 11 -18 33 -11
60 -26 91 -55 109 -49 33 -110 87 -105 95 7 11 73 29 148 39 79 11 250 5 299
-11z m-435 -75 c15 -14 46 -39 69 -55 39 -27 62 -63 49 -76 -3 -4 -6 -1 -6 5
0 19 -28 14 -40 -7 -5 -11 -10 -29 -10 -40 0 -22 -16 -26 -56 -15 -24 6 -58
62 -69 111 -7 35 10 103 26 103 6 0 22 -12 37 -26z m532 -34 c39 -15 47 -24
63 -64 l17 -47 -22 8 c-30 10 -181 10 -235 0 -37 -8 -43 -6 -43 8 0 39 34 88
74 106 44 20 70 18 146 -11z m4 -212 c-39 -40 -89 -97 -113 -125 -24 -29 -47
-50 -51 -48 -7 4 -36 106 -54 186 l-6 26 108 7 c59 3 123 10 142 15 19 5 37 9
39 10 2 1 -27 -32 -65 -71z m120 0 c13 -29 33 -83 45 -120 28 -85 20 -109 -37
-101 -33 4 -44 0 -90 -36 -59 -47 -129 -132 -138 -167 -7 -28 -35 -32 -55 -8
-8 9 -21 13 -35 10 -14 -4 -31 1 -45 13 l-24 19 24 26 c17 18 31 24 46 20 13
-3 29 1 39 11 19 19 19 23 5 81 -10 41 -9 47 13 76 41 53 209 228 220 228 5 0
19 -24 32 -52z m-360 30 c1 -7 15 -62 30 -122 21 -85 24 -111 15 -123 -10 -12
-14 -9 -25 15 -7 18 -37 47 -73 71 -68 47 -78 61 -83 117 l-3 39 50 6 c82 10
86 10 89 -3z m-428 -87 c-26 -81 -95 -356 -115 -459 -15 -73 -37 -122 -55
-122 -9 0 -16 2 -16 6 0 3 15 67 34 142 19 75 37 157 41 182 10 64 43 206 61
263 11 32 24 52 42 61 15 8 28 13 30 11 2 -2 -8 -40 -22 -84z m274 39 c0 -46
29 -89 82 -122 61 -40 74 -53 83 -88 9 -36 -55 -120 -91 -120 -29 0 -37 17
-88 181 -40 129 -41 140 -24 157 19 19 38 14 38 -8z m-86 -465 l1 -270 -24 -3
-24 -4 6 89 c4 48 10 182 13 297 10 296 26 232 28 -109z m679 242 c3 -8 8 -40
12 -73 3 -32 19 -126 35 -209 40 -214 42 -225 24 -232 -8 -3 -17 -4 -19 -1 -7
7 -33 151 -40 220 -4 37 -15 118 -25 180 -10 62 -16 116 -13 121 7 11 20 8 26
-6z m-69 -19 c-10 -13 -47 -54 -82 -91 -35 -38 -71 -82 -81 -98 -16 -25 -20
-27 -36 -15 -31 22 -10 63 74 148 66 66 84 78 111 78 l33 0 -19 -22z m-418
-184 c16 -11 36 -15 60 -11 58 10 64 3 64 -70 0 -76 9 -97 50 -111 46 -17 36
-32 -21 -32 -66 0 -106 24 -121 71 -7 26 -24 47 -54 68 -45 32 -57 64 -32 89
16 16 24 15 54 -4z"/>
</g>
</svg>
